<svg width="674" height="878" viewBox="0 0 674 878" fill="none" xmlns="http://www.w3.org/2000/svg">
<path d="M438 112.5C438 174.08 392.781 224 337 224C281.219 224 236 174.08 236 112.5C236 50.9202 281.219 1 337 1C392.781 1 438 50.9202 438 112.5Z" fill="#81D7EB"/>
<path d="M224 337.5C224 274.816 274.816 224 337.5 224C400.184 224 451 274.816 451 337.5V544.5C451 607.184 400.184 658 337.5 658C274.816 658 224 607.184 224 544.5V337.5Z" fill="#81D7EB"/>
<path d="M315 146C315 133.85 324.85 124 337 124C349.15 124 359 133.85 359 146V271C359 283.15 349.15 293 337 293C324.85 293 315 283.15 315 271V146Z" fill="#81D7EB"/>
<path d="M644.834 370.352C667.003 378.869 678.07 403.744 669.553 425.913C661.037 448.081 636.161 459.148 613.993 450.632L411.14 372.7C388.971 364.184 377.904 339.308 386.421 317.14C394.937 294.971 419.813 283.904 441.981 292.421L644.834 370.352Z" fill="#81D7EB"/>
<path d="M29.1398 370.352C6.97118 378.869 -4.0959 403.744 4.42076 425.913C12.9374 448.081 37.8127 459.148 59.9813 450.632L262.834 372.7C285.003 364.184 296.07 339.308 287.553 317.14C279.037 294.971 254.161 283.904 231.993 292.421L29.1398 370.352Z" fill="#81D7EB"/>
<path d="M481.542 824.318C486.608 847.52 471.905 870.434 448.703 875.5C425.501 880.565 402.586 865.862 397.521 842.661L351.172 630.354C346.106 607.152 360.809 584.237 384.011 579.172C407.212 574.106 430.127 588.809 435.193 612.011L481.542 824.318Z" fill="#81D7EB"/>
<path d="M192.171 824.318C187.106 847.52 201.809 870.434 225.011 875.5C248.212 880.565 271.127 865.862 276.193 842.661L322.542 630.354C327.608 607.152 312.905 584.237 289.703 579.172C266.501 574.106 243.586 588.809 238.521 612.011L192.171 824.318Z" fill="#81D7EB"/>
<path d="M438 112.5C438 174.08 392.781 224 337 224C281.219 224 236 174.08 236 112.5C236 50.9202 281.219 1 337 1C392.781 1 438 50.9202 438 112.5Z" stroke="#81D7EB" stroke-width="2"/>
<path d="M224 337.5C224 274.816 274.816 224 337.5 224C400.184 224 451 274.816 451 337.5V544.5C451 607.184 400.184 658 337.5 658C274.816 658 224 607.184 224 544.5V337.5Z" stroke="#81D7EB" stroke-width="2"/>
<path d="M315 146C315 133.85 324.85 124 337 124C349.15 124 359 133.85 359 146V271C359 283.15 349.15 293 337 293C324.85 293 315 283.15 315 271V146Z" stroke="#81D7EB" stroke-width="2"/>
<path d="M644.834 370.352C667.003 378.869 678.07 403.744 669.553 425.913C661.037 448.081 636.161 459.148 613.993 450.632L411.14 372.7C388.971 364.184 377.904 339.308 386.421 317.14C394.937 294.971 419.813 283.904 441.981 292.421L644.834 370.352Z" stroke="#81D7EB" stroke-width="2"/>
<path d="M29.1398 370.352C6.97118 378.869 -4.0959 403.744 4.42076 425.913C12.9374 448.081 37.8127 459.148 59.9813 450.632L262.834 372.7C285.003 364.184 296.07 339.308 287.553 317.14C279.037 294.971 254.161 283.904 231.993 292.421L29.1398 370.352Z" stroke="#81D7EB" stroke-width="2"/>
<path d="M481.542 824.318C486.608 847.52 471.905 870.434 448.703 875.5C425.501 880.565 402.586 865.862 397.521 842.661L351.172 630.354C346.106 607.152 360.809 584.237 384.011 579.172C407.212 574.106 430.127 588.809 435.193 612.011L481.542 824.318Z" stroke="#81D7EB" stroke-width="2"/>
<path d="M192.171 824.318C187.106 847.52 201.809 870.434 225.011 875.5C248.212 880.565 271.127 865.862 276.193 842.661L322.542 630.354C327.608 607.152 312.905 584.237 289.703 579.172C266.501 574.106 243.586 588.809 238.521 612.011L192.171 824.318Z" stroke="#81D7EB" stroke-width="2"/>
</svg>
